<?xml version="1.0" encoding="UTF-8"?>
<svg id="_レイヤー_2" data-name="レイヤー 2" xmlns="http://www.w3.org/2000/svg" xmlns:xlink="http://www.w3.org/1999/xlink" viewBox="0 0 129.3 196.67">
  <defs>
    <style>
      .cls-1 {
        fill: url(#_名称未設定グラデーション_838);
        fill-rule: evenodd;
      }
    </style>
    <linearGradient id="_名称未設定グラデーション_838" data-name="名称未設定グラデーション 838" x1="97.84" y1="189.67" x2="33.17" y2="11.99" gradientUnits="userSpaceOnUse">
      <stop offset="0" stop-color="#2e5eff"/>
      <stop offset=".14" stop-color="#266aff"/>
      <stop offset=".71" stop-color="#0a9aff"/>
      <stop offset="1" stop-color="#00adff"/>
    </linearGradient>
  </defs>
  <g id="_レイヤー_1-2" data-name="レイヤー 1">
    <path class="cls-1" d="M129.12,134.93c-.55-6.08-2.26-11.57-4.57-16.42-13.5-28.34-32.02-26.33-53.77-42.18-10.19-7.43-17.16-17.07-13.91-30.96,5.81-24.83,47.75-30.19,64.67-5.55C118.86,8.85,92.91,1.08,78.93.11c-11.2-.77-24.3,2.44-36.99,10.65-14.88,9.63-24.61,26.03-25.51,43.76-.11,2.25-.06,4.43.13,6.54.49,5.46,1.92,10.44,3.88,14.91,14.34,32.73,38.17,27.75,59.6,47.92,7.22,6.8,11.25,15.29,8.76,26.72-6.13,28.21-37.66,30.7-56.73,13.92-19.07-16.79-18-39.31-18-39.31,5.62,23.24,38.67,47.01,47.73,35.48,17.21-21.9-25.26-37.49-33.57-45.8-4.42-4.43-7.93-8.94-10.06-13.8-5.24-11.93-4.11-23.8-4.11-23.8C2.24,100.6-1.31,120.18.41,136.3c4.4,41.38,43.47,60.02,66.5,60.36,2.07.03,4.12-.05,6.16-.22,11.18-.98,21.77-5.02,30.67-11.22,14.54-10.13,24.61-26.03,25.51-43.76.11-2.25.06-4.43-.13-6.54Z"/>
  </g>
</svg>